<svg width="42" height="42" viewBox="0 0 42 42" fill="none" xmlns="http://www.w3.org/2000/svg">
<g filter="url(#filter0_d_156:7395)">
<rect x="6" y="3" width="30" height="30" rx="6" fill="white"/>
</g>
<path d="M26.8891 16.6398H26.4244V16.6159H21.2321V18.9236H24.4926C24.0169 20.2669 22.7388 21.2313 21.2321 21.2313C19.3205 21.2313 17.7706 19.6814 17.7706 17.7697C17.7706 15.8581 19.3205 14.3082 21.2321 14.3082C22.1145 14.3082 22.9173 14.6411 23.5286 15.1848L25.1604 13.553C24.13 12.5927 22.7517 12.0005 21.2321 12.0005C18.0461 12.0005 15.4629 14.5837 15.4629 17.7697C15.4629 20.9558 18.0461 23.5389 21.2321 23.5389C24.4182 23.5389 27.0014 20.9558 27.0014 17.7697C27.0014 17.3829 26.9615 17.0053 26.8891 16.6398Z" fill="#FFC107"/>
<path d="M16.127 15.0844L18.0224 16.4745C18.5353 15.2047 19.7774 14.3082 21.231 14.3082C22.1134 14.3082 22.9162 14.6411 23.5274 15.1848L25.1593 13.553C24.1289 12.5927 22.7506 12.0005 21.231 12.0005C19.015 12.0005 17.0933 13.2515 16.127 15.0844Z" fill="#FF3D00"/>
<path d="M21.2318 23.5388C22.722 23.5388 24.076 22.9685 25.0997 22.0411L23.3142 20.5301C22.7155 20.9854 21.9839 21.2317 21.2318 21.2311C19.7312 21.2311 18.457 20.2743 17.977 18.939L16.0957 20.3885C17.0505 22.2569 18.9895 23.5388 21.2318 23.5388Z" fill="#4CAF50"/>
<path d="M26.8875 16.6387H26.4228V16.6147H21.2305V18.9224H24.491C24.2634 19.5618 23.8536 20.1205 23.312 20.5295L23.3129 20.5289L25.0985 22.0398C24.9721 22.1546 26.9997 20.6532 26.9997 17.7686C26.9997 17.3818 26.9599 17.0042 26.8875 16.6387Z" fill="#1976D2"/>
<defs>
<filter id="filter0_d_156:7395" x="0" y="0" width="42" height="42" filterUnits="userSpaceOnUse" color-interpolation-filters="sRGB">
<feFlood flood-opacity="0" result="BackgroundImageFix"/>
<feColorMatrix in="SourceAlpha" type="matrix" values="0 0 0 0 0 0 0 0 0 0 0 0 0 0 0 0 0 0 127 0" result="hardAlpha"/>
<feOffset dy="3"/>
<feGaussianBlur stdDeviation="3"/>
<feComposite in2="hardAlpha" operator="out"/>
<feColorMatrix type="matrix" values="0 0 0 0 0 0 0 0 0 0 0 0 0 0 0 0 0 0 0.15 0"/>
<feBlend mode="normal" in2="BackgroundImageFix" result="effect1_dropShadow_156:7395"/>
<feBlend mode="normal" in="SourceGraphic" in2="effect1_dropShadow_156:7395" result="shape"/>
</filter>
</defs>
</svg>
