<?xml version="1.0" encoding="utf-8"?>
<!-- Generator: Adobe Illustrator 17.1.0, SVG Export Plug-In . SVG Version: 6.00 Build 0)  -->
<!DOCTYPE svg PUBLIC "-//W3C//DTD SVG 1.1//EN" "http://www.w3.org/Graphics/SVG/1.1/DTD/svg11.dtd">
<svg version="1.1" id="Layer_1" xmlns="http://www.w3.org/2000/svg" xmlns:xlink="http://www.w3.org/1999/xlink" x="0px" y="0px"
	 viewBox="0 0 42 42" enable-background="new 0 0 42 42" xml:space="preserve">
<g>
	<path fill="#FFFFFF" d="M11.8,6h18c3.3,0,6,2.7,6,6v18c0,3.3-2.7,6-6,6h-18c-3.3,0-6-2.7-6-6V12C5.8,8.7,8.5,6,11.8,6z"/>
</g>
<g display="none">
	<defs>
		<rect id="SVGID_1_" x="12.9" y="11.8" width="16.2" height="13.2"/>
	</defs>
	<clipPath id="SVGID_2_" display="inline">
		<use xlink:href="#SVGID_1_"  overflow="visible"/>
	</clipPath>
	<g display="inline" clip-path="url(#SVGID_2_)">
		<path fill="#55ACEE" d="M29.1,13.4c-0.6,0.3-1.2,0.4-1.9,0.5c0.7-0.4,1.2-1.1,1.5-1.8c-0.7,0.4-1.4,0.7-2.1,0.8
			c-0.6-0.6-1.5-1-2.4-1c-1.8,0-3.3,1.5-3.3,3.3c0,0.3,0,0.5,0.1,0.8c-2.8-0.1-5.2-1.5-6.8-3.5c-0.3,0.5-0.4,1.1-0.4,1.7
			c0,1.2,0.6,2.2,1.5,2.8c-0.5,0-1-0.2-1.5-0.4c0,0,0,0,0,0c0,1.6,1.1,2.9,2.7,3.3c-0.5,0.1-1,0.2-1.5,0.1c0.4,1.3,1.6,2.3,3.1,2.3
			c-1.1,0.9-2.6,1.4-4.1,1.4c-0.3,0-0.5,0-0.8,0c1.5,0.9,3.2,1.5,5.1,1.5c6.1,0,9.4-5.1,9.4-9.4c0-0.1,0-0.3,0-0.4
			C28.1,14.6,28.6,14,29.1,13.4z"/>
	</g>
</g>
<g>
	
		<linearGradient id="SVGID_3_" gradientUnits="userSpaceOnUse" x1="-227.4675" y1="272.0729" x2="-227.438" y2="272.0729" gradientTransform="matrix(-146.1113 482.7148 482.7148 146.1113 -164546.0625 70062.2109)">
		<stop  offset="0" style="stop-color:#515BD4"/>
		<stop  offset="0.26" style="stop-color:#9510B8"/>
		<stop  offset="0.66" style="stop-color:#E51804"/>
		<stop  offset="1" style="stop-color:#FEDA77"/>
	</linearGradient>
	<path fill="url(#SVGID_3_)" d="M20.8,13.7c-2,0-2.3,0-3,0c-0.8,0-1.3,0.2-1.8,0.3c-0.5,0.2-0.9,0.4-1.3,0.9
		c-0.4,0.4-0.7,0.8-0.9,1.3c-0.2,0.5-0.3,1-0.3,1.8c0,0.8,0,1,0,3c0,2,0,2.3,0,3c0,0.8,0.2,1.3,0.3,1.8c0.2,0.5,0.4,0.9,0.9,1.3
		c0.4,0.4,0.8,0.7,1.3,0.9c0.5,0.2,1,0.3,1.8,0.3c0.8,0,1,0,3,0c2,0,2.3,0,3,0c0.8,0,1.3-0.2,1.8-0.3c0.5-0.2,0.9-0.4,1.3-0.9
		c0.4-0.4,0.7-0.8,0.9-1.3c0.2-0.5,0.3-1,0.3-1.8c0-0.8,0-1,0-3c0-2,0-2.3,0-3c0-0.8-0.2-1.3-0.3-1.8c-0.2-0.5-0.4-0.9-0.9-1.3
		c-0.4-0.4-0.8-0.7-1.3-0.9c-0.5-0.2-1-0.3-1.8-0.3C23,13.7,22.8,13.7,20.8,13.7z M20.8,15c2,0,2.2,0,3,0c0.7,0,1.1,0.2,1.4,0.3
		c0.3,0.1,0.6,0.3,0.8,0.6c0.3,0.3,0.4,0.5,0.6,0.8c0.1,0.3,0.2,0.7,0.3,1.4c0,0.8,0,1,0,3c0,2,0,2.2,0,3c0,0.7-0.2,1.1-0.3,1.4
		c-0.1,0.3-0.3,0.6-0.6,0.8c-0.3,0.3-0.5,0.4-0.8,0.6c-0.3,0.1-0.7,0.2-1.4,0.3c-0.8,0-1,0-3,0c-2,0-2.2,0-3,0
		c-0.7,0-1.1-0.2-1.4-0.3c-0.3-0.1-0.6-0.3-0.8-0.6c-0.3-0.3-0.4-0.5-0.6-0.8c-0.1-0.3-0.2-0.7-0.3-1.4c0-0.8,0-1,0-3c0-2,0-2.2,0-3
		c0-0.7,0.2-1.1,0.3-1.4c0.1-0.3,0.3-0.6,0.6-0.8c0.3-0.3,0.5-0.4,0.8-0.6c0.3-0.1,0.7-0.2,1.4-0.3C18.6,15,18.8,15,20.8,15z"/>
	
		<linearGradient id="SVGID_4_" gradientUnits="userSpaceOnUse" x1="-227.4675" y1="272.0729" x2="-227.438" y2="272.0729" gradientTransform="matrix(-146.1113 482.7148 482.7148 146.1113 -164546.0625 70062.2109)">
		<stop  offset="0" style="stop-color:#515BD4"/>
		<stop  offset="0.26" style="stop-color:#9510B8"/>
		<stop  offset="0.66" style="stop-color:#E51804"/>
		<stop  offset="1" style="stop-color:#FFBF00"/>
	</linearGradient>
	<path fill="url(#SVGID_4_)" d="M20.8,23.5c-1.4,0-2.5-1.1-2.5-2.5c0-1.4,1.1-2.5,2.5-2.5c1.4,0,2.5,1.1,2.5,2.5
		C23.2,22.4,22.1,23.5,20.8,23.5z M20.8,17.3C18.7,17.3,17,19,17,21c0,2.1,1.7,3.8,3.8,3.8c2.1,0,3.8-1.7,3.8-3.8
		C24.6,19,22.9,17.3,20.8,17.3z"/>
	
		<linearGradient id="SVGID_5_" gradientUnits="userSpaceOnUse" x1="-227.4675" y1="272.0782" x2="-227.438" y2="272.0782" gradientTransform="matrix(-146.1113 482.7148 482.7148 146.1113 -164546.0625 70062.2109)">
		<stop  offset="0" style="stop-color:#515BD4"/>
		<stop  offset="0.26" style="stop-color:#9510B8"/>
		<stop  offset="0.66" style="stop-color:#E51804"/>
		<stop  offset="1" style="stop-color:#FFBF00"/>
	</linearGradient>
	<path fill="url(#SVGID_5_)" d="M25.6,17.1c0,0.5-0.4,0.9-0.9,0.9c-0.5,0-0.9-0.4-0.9-0.9c0-0.5,0.4-0.9,0.9-0.9
		C25.2,16.2,25.6,16.6,25.6,17.1z"/>
</g>
</svg>
