<svg width="54" height="54" viewBox="0 0 54 54" fill="none" xmlns="http://www.w3.org/2000/svg">
<rect width="54" height="54" rx="8" fill="#007FEE"/>
<path d="M33.1291 32.0453L28.5325 36.6418C28.3315 36.8431 28.0928 37.0027 27.83 37.1116C27.5673 37.2205 27.2856 37.2766 27.0012 37.2766C26.7168 37.2766 26.4351 37.2205 26.1724 37.1116C25.9096 37.0027 25.6709 36.8431 25.4699 36.6418L20.8722 32.0453C19.6602 30.8332 18.8349 29.2889 18.5005 27.6078C18.1661 25.9266 18.3378 24.1841 18.9937 22.6005C19.6497 21.0169 20.7605 19.6633 22.1858 18.7111C23.611 17.7588 25.2866 17.2505 27.0007 17.2505C28.7147 17.2505 30.3903 17.7588 31.8156 18.7111C33.2408 19.6633 34.3516 21.0169 35.0076 22.6005C35.6635 24.1841 35.8352 25.9266 35.5008 27.6078C35.1665 29.2889 34.3411 30.8332 33.1291 32.0453V32.0453Z" stroke="white" stroke-width="2" stroke-linecap="round" stroke-linejoin="round"/>
<path d="M29.2981 28.2146C29.9076 27.6051 30.25 26.7785 30.25 25.9165C30.25 25.0545 29.9076 24.2279 29.2981 23.6184C28.6886 23.0089 27.862 22.6665 27 22.6665C26.138 22.6665 25.3114 23.0089 24.7019 23.6184C24.0924 24.2279 23.75 25.0545 23.75 25.9165C23.75 26.7785 24.0924 27.6051 24.7019 28.2146C25.3114 28.8241 26.138 29.1665 27 29.1665C27.862 29.1665 28.6886 28.8241 29.2981 28.2146Z" stroke="white" stroke-width="2" stroke-linecap="round" stroke-linejoin="round"/>
</svg>
