<svg width="42" height="42" viewBox="0 0 42 42" fill="none" xmlns="http://www.w3.org/2000/svg">
<g filter="url(#filter0_d_156:7402)">
<rect x="6" y="3" width="30" height="30" rx="6" fill="white"/>
</g>
<g clip-path="url(#clip0_156:7402)">
<path d="M29.0757 13.3768C28.4813 13.6405 27.8426 13.8187 27.1722 13.8989C27.8565 13.4885 28.382 12.8386 28.6294 12.0643C27.9789 12.4506 27.2671 12.7227 26.5249 12.869C25.9204 12.2245 25.0591 11.8218 24.1058 11.8218C22.2755 11.8218 20.7916 13.3066 20.7916 15.1378C20.7916 15.3978 20.8209 15.6509 20.8774 15.8936C18.123 15.7553 15.681 14.4351 14.0464 12.4288C13.7612 12.9186 13.5977 13.4883 13.5977 14.0959C13.5977 15.2464 14.1829 16.2614 15.0721 16.8561C14.5458 16.8396 14.0311 16.6974 13.5709 16.4413C13.5707 16.4552 13.5707 16.4691 13.5707 16.483C13.5707 18.0897 14.7131 19.4301 16.2292 19.7347C15.7412 19.8675 15.2292 19.8869 14.7326 19.7915C15.1543 21.109 16.3782 22.0677 17.8284 22.0945C16.6942 22.9839 15.2651 23.5141 13.7125 23.5141C13.4449 23.5141 13.1812 23.4984 12.9219 23.4677C14.3885 24.4086 16.1306 24.9576 18.0021 24.9576C24.0981 24.9576 27.4316 19.9045 27.4316 15.5224C27.4316 15.3786 27.4284 15.2356 27.422 15.0934C28.0708 14.6241 28.6308 14.0428 29.0757 13.3768Z" fill="#55ACEE"/>
</g>
<defs>
<filter id="filter0_d_156:7402" x="0" y="0" width="42" height="42" filterUnits="userSpaceOnUse" color-interpolation-filters="sRGB">
<feFlood flood-opacity="0" result="BackgroundImageFix"/>
<feColorMatrix in="SourceAlpha" type="matrix" values="0 0 0 0 0 0 0 0 0 0 0 0 0 0 0 0 0 0 127 0" result="hardAlpha"/>
<feOffset dy="3"/>
<feGaussianBlur stdDeviation="3"/>
<feComposite in2="hardAlpha" operator="out"/>
<feColorMatrix type="matrix" values="0 0 0 0 0 0 0 0 0 0 0 0 0 0 0 0 0 0 0.15 0"/>
<feBlend mode="normal" in2="BackgroundImageFix" result="effect1_dropShadow_156:7402"/>
<feBlend mode="normal" in="SourceGraphic" in2="effect1_dropShadow_156:7402" result="shape"/>
</filter>
<clipPath id="clip0_156:7402">
<rect width="16.1538" height="13.1961" fill="white" transform="translate(12.9219 11.77)"/>
</clipPath>
</defs>
</svg>
