<svg width="171" height="54" viewBox="0 0 171 54" fill="none" xmlns="http://www.w3.org/2000/svg">
<path d="M51.7022 40.5531C51.7022 39.5022 50.7631 38.8621 50.7631 38.2202C50.7631 37.6828 51.9898 35.7094 51.9898 33.7598C51.9898 30.7354 51.4166 28.2998 47.8411 28.2998H43.431C43.1435 28.2998 42.9082 28.5309 42.9082 28.8115V45.727C42.9082 46.0094 43.1435 46.2387 43.431 46.2387H45.257C47.0569 46.2387 44.1349 39.1904 46.9785 39.1904H47.9176C50.0312 39.1904 47.8915 46.2387 49.5084 46.2387H51.256C51.6219 46.2387 51.8553 46.0076 51.8553 45.6499C51.8553 45.1896 51.6985 44.7274 51.6985 44.2652V40.5531H51.7022ZM47.8411 36.3751H46.8235C46.1719 36.3751 45.7798 35.7864 45.7798 35.1958V32.2999C45.7798 31.6084 46.2764 31.1206 46.9803 31.1206H47.8411C49.1462 31.1206 49.12 32.8629 49.12 33.7598C49.12 34.6566 49.1462 36.3751 47.8411 36.3751Z" fill="#007FEE"/>
<path d="M57.8078 28.3018H55.9818C55.6942 28.3018 55.459 28.5329 55.459 28.8135V45.7289C55.459 46.0114 55.6942 46.2406 55.9818 46.2406H57.8078C58.0953 46.2406 58.3287 46.0095 58.3287 45.7289V28.8135C58.3306 28.531 58.0953 28.3018 57.8078 28.3018ZM56.0284 36.2597V36.2707C56.021 36.2707 56.0154 36.2726 56.0079 36.2726L56.0284 36.2597ZM56.0303 36.5275V36.5568L56.0079 36.5532C56.0135 36.544 56.0228 36.5367 56.0303 36.5275Z" fill="#007FEE"/>
<path d="M70.6461 28.3018H68.8201C68.5325 28.3018 68.2991 28.5328 68.2991 28.8135V36.1955C68.2991 36.3753 68.2207 36.6577 67.9855 36.6577C66.5235 36.0946 66.081 28.3018 64.6452 28.3018H62.7669C62.4794 28.3018 62.2441 28.5328 62.2441 28.8135V45.7289C62.2441 46.0114 62.4794 46.2406 62.7669 46.2406H64.593C64.8805 46.2406 65.1139 46.0095 65.1139 45.7289V38.3469C65.1139 38.1671 65.1923 37.8865 65.4275 37.8865C66.8895 38.4496 67.3058 46.2425 68.7416 46.2425H70.6461C70.9336 46.2425 71.167 46.0114 71.167 45.7308V28.8135C71.167 28.531 70.9336 28.3018 70.6461 28.3018ZM62.9574 41.8829L62.9499 41.8866L62.9592 41.8572L62.9574 41.8829Z" fill="#007FEE"/>
<path d="M83.1698 41.1414L83.1438 41.1157L83.1178 40.9873L83.0918 41.013V41.1157L83.1698 41.1414Z" fill="#007FEE"/>
<path d="M83.5858 36.938H79.7246C78.9162 36.938 79.2037 38.7317 79.2037 39.2452C79.2037 39.8853 80.0644 39.7569 80.4826 39.7569C81.4479 39.7569 81.2388 41.3709 81.2388 41.9614C81.2388 43.2691 80.5349 43.7294 79.2298 43.7294C77.9247 43.7294 77.1686 43.2929 77.1686 41.9614V32.5802C77.1686 31.2469 77.9247 30.8122 79.2298 30.8122C82.6485 30.8122 80.3258 34.2217 81.7597 34.2217H83.5858C84.3158 34.2217 84.1085 33.0424 84.1085 32.5821C84.1085 29.7118 82.0996 27.9951 79.2298 27.9951C76.4124 27.9951 74.2988 29.6861 74.2988 32.5582V41.9908C74.2988 44.8611 76.4124 46.5521 79.2298 46.5521C82.0996 46.5521 84.1085 44.8354 84.1085 41.9651V37.4533C84.1085 37.169 83.8733 36.938 83.5858 36.938Z" fill="#007FEE"/>
<path d="M97.729 27.9932C95.3802 27.9932 93.502 29.8896 93.502 32.1968V42.4235C93.502 44.7051 95.3802 46.5501 97.729 46.5501C100.052 46.5501 101.982 44.7307 101.982 42.4235V32.1968C101.982 29.8896 100.102 27.9932 97.729 27.9932ZM96.3717 32.1968C96.3717 31.4027 96.8926 30.8121 97.729 30.8121C98.5636 30.8121 99.1126 31.3752 99.1126 32.1968V42.4235C99.1126 43.2433 98.5375 43.7312 97.729 43.7312C96.9467 43.7312 96.3717 43.2195 96.3717 42.4235V32.1968Z" fill="#007FEE"/>
<path d="M111.871 30.6072V28.8135C111.871 28.531 111.636 28.3018 111.35 28.3018H106.027C105.739 28.3018 105.506 28.5329 105.506 28.8135V45.7289C105.506 46.0114 105.741 46.2406 106.027 46.2406H107.853C108.14 46.2406 108.374 46.0095 108.374 45.7289V39.8343C108.374 37.5784 111.871 39.5262 111.871 38.169V36.3753C111.871 35.0162 108.374 36.964 108.374 34.7099V32.2743C108.376 30.0184 111.871 31.9662 111.871 30.6072Z" fill="#007FEE"/>
<path d="M130.03 28.3008H128.204C127.917 28.3008 127.683 28.5319 127.683 28.8125V35.8607C127.683 37.0657 126.77 37.0144 125.831 37.0144C125.101 37.0144 124.657 36.5779 124.657 35.8607V28.8125C124.657 28.53 124.422 28.3008 124.136 28.3008H122.31C122.022 28.3008 121.789 28.5319 121.789 28.8125V45.7279C121.789 46.0104 122.024 46.2396 122.31 46.2396H124.136C124.424 46.2396 124.657 46.0085 124.657 45.7279V40.9869C124.657 39.7819 125.57 39.8333 126.509 39.8333C129.3 39.8333 126.431 46.2415 128.204 46.2415H130.03C130.318 46.2415 130.551 46.0104 130.551 45.7298V28.8125C130.553 28.53 130.318 28.3008 130.03 28.3008ZM129.177 29.1206H129.172C129.173 29.0949 129.177 29.0637 129.196 29.0436L129.177 29.1206Z" fill="#EB5757"/>
<path d="M136.816 28.3008H134.99C134.702 28.3008 134.469 28.5319 134.469 28.8125V45.7279C134.469 46.0104 134.704 46.2396 134.99 46.2396H136.816C137.103 46.2396 137.337 46.0085 137.337 45.7279V28.8125C137.337 28.53 137.103 28.3008 136.816 28.3008Z" fill="#EB5757"/>
<path d="M148.373 33.7086L148.295 33.6572V33.7343L148.321 33.7599L148.373 33.7086Z" fill="#EB5757"/>
<path d="M148.66 44.6529L148.686 44.6786L148.712 44.6272L148.738 44.5264H148.686L148.66 44.6529Z" fill="#EB5757"/>
<path d="M149.261 40.2698C149.261 38.8594 148.453 38.168 148.453 37.5792C148.453 37.0162 149.549 35.3234 149.549 33.504C149.549 31.0427 148.27 28.3008 145.4 28.3008H141.251C140.964 28.3008 140.73 28.5319 140.73 28.8125V45.7279C140.73 46.0104 140.966 46.2396 141.251 46.2396H143.077C144.799 46.2396 142.269 38.6797 144.435 38.6797C148.583 38.6797 144.905 44.677 147.069 46.2396H148.843C149.183 46.2396 149.418 46.0085 149.418 45.6766C149.418 45.1887 149.261 44.677 149.261 44.1653V40.2698V40.2698ZM143.6 32.2733C143.6 31.5562 144.045 31.1197 144.775 31.1197H145.4C146.47 31.1197 146.679 32.7337 146.679 33.504C146.679 34.3238 146.548 35.8626 145.4 35.8626H144.513C143.835 35.8626 143.6 35.2977 143.6 34.709V32.2733ZM143.469 36.7062C143.443 36.7062 143.443 36.7062 143.417 36.6806L143.469 36.7062ZM146.392 37.9882C146.378 37.9809 146.369 37.9736 146.36 37.9662L146.371 37.9681L146.392 37.9882L146.601 38.1423C146.522 38.1166 146.392 37.9882 146.392 37.9882Z" fill="#EB5757"/>
<path d="M160.43 30.6062V28.8125C160.43 28.53 160.194 28.3008 159.909 28.3008H153.021C152.733 28.3008 152.5 28.5319 152.5 28.8125V45.7279C152.5 46.0104 152.735 46.2396 153.021 46.2396H159.909C160.196 46.2396 160.43 46.0085 160.43 45.7279V43.9342C160.43 42.3698 155.368 44.8054 155.368 42.2689V39.8333C155.368 37.2968 160.43 39.7306 160.43 38.168V36.3743C160.43 34.8098 155.368 37.2454 155.368 34.709V32.2733C155.368 29.735 160.43 32.1706 160.43 30.6062ZM155.011 36.2661V36.2624C155.03 36.2404 155.036 36.2202 155.082 36.2202L155.011 36.2661Z" fill="#EB5757"/>
<path d="M169.563 32.1973L169.537 32.2486L169.615 32.1973H169.563Z" fill="#EB5757"/>
<path d="M168.049 38.3745L168.153 38.4002L168.101 38.2461L168.049 38.3488V38.3745Z" fill="#EB5757"/>
<path d="M166.145 36.4527C166.145 36.5041 166.171 36.5298 166.171 36.5811H166.3V36.4014H166.145V36.4527Z" fill="#EB5757"/>
<path d="M165.544 32.7597C165.544 31.8372 165.57 30.5809 166.823 30.5809C169.093 30.5809 167.344 34.348 168.623 34.348H170.475C171.074 34.348 170.996 33.7336 170.996 33.3485C170.996 30.4012 170.344 27.9912 166.821 27.9912C163.298 27.9912 162.646 30.4012 162.646 33.3485C162.646 37.3724 168.1 38.4233 168.1 41.7814C168.1 42.704 168.074 43.9603 166.821 43.9603C164.524 43.9603 166.324 40.1675 165.021 40.1675H163.169C162.569 40.1675 162.648 40.8076 162.648 41.1927C162.648 44.2427 163.326 46.55 166.823 46.55C170.346 46.55 170.998 44.1144 170.998 41.1927C170.996 36.912 165.544 36.2206 165.544 32.7597Z" fill="#EB5757"/>
<path d="M13.8223 35.4656C13.8223 36.1846 14.0146 37.0796 15.5157 37.6225L15.8182 37.7325V33.0557L15.5139 33.1694C14.4085 33.582 13.8223 34.3762 13.8223 35.4656Z" fill="url(#paint0_linear_156:7118)"/>
<path d="M15.8205 54V49.2003L15.6151 49.1838C13.7181 49.0242 11.8846 48.386 10.587 47.4304L10.4638 47.3406V43.6101L10.9866 44.1126C12.1124 45.1966 13.8246 45.9815 15.5666 46.2108L15.8205 46.2438V40.881L15.6356 40.848C12.4859 40.2868 10.6038 38.306 10.6038 35.5494C10.6038 32.7764 12.5792 30.6158 15.6375 30.0455L15.8205 30.0106V27.4814L15.5703 27.5108C12.8331 27.8262 10.2472 29.0569 8.29048 30.979C5.95848 33.2697 4.67578 36.3142 4.67578 39.5532C4.67578 42.7921 5.96034 45.8366 8.29048 48.1274C9.93913 49.7468 11.9985 50.8693 14.2465 51.3736L14.4855 51.4268V53.8588C14.9243 53.9211 15.3705 53.9688 15.8205 54Z" fill="url(#paint1_linear_156:7118)"/>
<path d="M20.2682 43.6378C20.2682 42.7574 19.8593 42.0788 19.0508 41.6185L18.7129 41.4277V45.9248L19.0527 45.7268C19.8481 45.2646 20.2682 44.542 20.2682 43.6378Z" fill="url(#paint2_linear_156:7118)"/>
<path d="M7.86196 51.4181C7.98519 51.4952 8.11028 51.574 8.23538 51.6474C7.98332 51.4695 7.73686 51.2824 7.49414 51.0898C7.61737 51.1999 7.73873 51.3099 7.86196 51.4181Z" fill="url(#paint3_linear_156:7118)"/>
<path d="M18.8996 30.0508C19.1293 30.0893 19.3552 30.1407 19.5774 30.1939V25.5299L19.2992 25.5042C19.105 25.4859 18.9089 25.4749 18.7129 25.4639V30.0178L18.8996 30.0508Z" fill="url(#paint4_linear_156:7118)"/>
<path d="M23.5676 36.0407V32.3983L23.4462 32.3084C23.2128 32.1342 22.9626 31.9728 22.7031 31.8242V35.2007C22.8208 35.3016 22.9346 35.4043 23.0411 35.5107L23.5676 36.0407Z" fill="url(#paint5_linear_156:7118)"/>
<path d="M22.1764 34.7679C21.366 33.9536 20.2346 33.3429 18.9911 33.0494L18.7129 32.9834V38.2049L18.8921 38.2416C19.1311 38.2911 19.357 38.3498 19.5792 38.4122V33.7262L19.8574 33.7922C20.7536 34.005 21.5882 34.3828 22.2903 34.8798L22.1764 34.7679Z" fill="url(#paint6_linear_156:7118)"/>
<path d="M20.9141 28.043V28.5345L21.14 28.595C22.7476 29.0242 24.2543 29.7798 25.5631 30.8051C24.2356 29.5524 22.643 28.606 20.9141 28.043Z" fill="url(#paint7_linear_156:7118)"/>
<path d="M19.5774 49.7594L19.7491 49.7191C22.7272 49.0185 24.4356 46.9937 24.4356 44.1619C24.4356 42.3278 23.7522 40.9505 22.406 40.0371C23.1809 40.9009 23.5711 42.0289 23.5711 43.4191C23.5711 46.2509 21.8627 48.2757 18.8847 48.9763L18.7129 49.0166V51.5678L18.9724 51.5275C19.1759 51.4963 19.3776 51.4578 19.5774 51.4174V49.7594V49.7594Z" fill="url(#paint8_linear_156:7118)"/>
<path d="M29.5244 25.9922C27.4109 22.2287 29.1137 17.0035 29.1155 16.9962C28.8317 17.2364 28.5423 17.506 28.2585 17.8288C27.7432 18.3992 27.2298 19.0906 26.7817 19.916C26.5856 20.2773 26.4045 20.6661 26.2421 21.0751C26.3802 20.4864 26.5445 19.894 26.6995 19.2924C26.9105 18.4726 27.0935 17.6491 27.1532 16.8183C27.2129 15.9893 27.1177 15.1566 26.8825 14.3845C26.7686 13.9957 26.6136 13.627 26.4493 13.2657C26.2738 12.9117 26.089 12.5651 25.8798 12.2386C25.4691 11.5784 24.9967 10.9823 24.5131 10.4229C23.5385 9.30598 22.5041 8.35411 21.5986 7.40774C20.6893 6.46503 19.9033 5.52967 19.3319 4.57779C18.7587 3.63142 18.4283 2.67221 18.2845 1.80838C18.2042 1.37737 18.1911 0.96838 18.1911 0.594233C18.2042 0.40716 18.2023 0.227422 18.2285 0.0568556C18.2303 0.0513535 18.2303 0.0476854 18.2303 0.0421832C18.2322 0.0275108 18.2341 0.0128384 18.2359 0C18.221 0.0128384 18.2061 0.0256767 18.193 0.0403491V0.0421832C17.9689 0.253099 17.743 0.508032 17.532 0.816153C17.1922 1.31135 16.8767 1.93126 16.6881 2.66488C16.4883 3.39483 16.4249 4.23483 16.5201 5.11701C16.6097 6.00102 16.8468 6.92722 17.1941 7.86258C17.5376 8.80162 17.982 9.74982 18.4525 10.7274C18.9193 11.7049 19.4103 12.7173 19.7931 13.7939C19.8006 13.8177 19.8099 13.8398 19.8174 13.8636C19.9891 14.3533 20.034 14.8815 19.9331 15.3895C19.9331 15.3932 19.9313 15.395 19.9313 15.3987C19.7931 16.114 19.4944 16.8476 18.966 17.4492C18.7027 17.7463 18.3872 18.0141 18.0194 18.2011C17.6534 18.3919 17.2408 18.4983 16.8151 18.5166C16.3913 18.5368 15.9674 18.4671 15.5753 18.3332C15.1832 18.1993 14.8192 18.0049 14.498 17.7665C13.852 17.2896 13.4132 16.6202 13.1556 15.9416C12.8942 15.2575 12.8027 14.555 12.8064 13.9058C12.8064 13.2529 12.9147 12.6495 13.051 12.1121C13.2657 11.2959 13.5439 10.6302 13.7829 10.1093C13.7848 10.102 13.7904 10.0965 13.7923 10.0891C13.781 10.0946 13.7698 10.0983 13.7586 10.1056C13.753 10.1075 13.7493 10.1111 13.7437 10.113C13.5589 10.1992 13.3497 10.3019 13.1201 10.4376C12.6701 10.698 12.138 11.0502 11.5928 11.5454C11.3146 11.7875 11.0439 12.0736 10.7694 12.3854C10.508 12.6916 10.2541 13.0328 10.0151 13.4088C9.5446 14.1846 9.13758 15.1254 8.87432 16.2607C8.8183 16.534 8.63533 17.6913 8.61105 18.0049C8.52704 17.959 8.44488 17.9114 8.3646 17.8618C8.20029 17.7573 8.04532 17.6491 7.90529 17.5262C7.83248 17.4675 7.76899 17.4015 7.70365 17.341C7.6439 17.2731 7.58042 17.2107 7.52627 17.1411C7.30409 16.8678 7.14912 16.5633 7.06883 16.2534C6.98668 15.9434 6.98108 15.628 7.02029 15.3382C7.04269 15.1933 7.0763 15.0539 7.11924 14.9218C7.16592 14.7916 7.21633 14.6651 7.28168 14.5514C7.53374 14.091 7.90716 13.7866 8.2395 13.605C8.28805 13.5775 8.33472 13.5555 8.3814 13.5335C8.42808 13.5115 8.47289 13.4931 8.5177 13.4748C8.56438 13.4564 8.60919 13.4399 8.654 13.4234C8.62226 13.4106 8.59052 13.3996 8.55878 13.3867C8.27124 13.2822 7.91836 13.2033 7.50947 13.2052C7.38811 13.2088 7.25928 13.207 7.13045 13.2254C7.0651 13.2345 6.99788 13.2364 6.93253 13.251C6.86719 13.2639 6.79997 13.2767 6.73089 13.2914C6.46016 13.3574 6.17636 13.4509 5.9019 13.5995C5.3511 13.8948 4.84138 14.3936 4.50717 15.0429C4.16923 15.6885 3.99372 16.4698 4.0348 17.2878C4.03853 17.3905 4.0516 17.4914 4.06094 17.5959C4.07401 17.6986 4.09268 17.8013 4.10762 17.9059C4.13002 18.0086 4.15243 18.1113 4.17856 18.2158C4.20844 18.3167 4.23458 18.4194 4.27005 18.5221C4.40635 18.9274 4.59493 19.3254 4.82831 19.7014C5.0617 20.0792 5.34177 20.4368 5.65544 20.7688C5.96911 21.1008 6.31639 21.4107 6.69355 21.6913C7.29848 22.1407 7.93517 22.4983 8.55504 22.8266C8.43741 22.8926 8.31979 22.9568 8.20403 23.0265C7.89409 23.0082 7.58975 22.9623 7.29849 22.8963C6.69915 22.7588 6.14649 22.5423 5.65731 22.2874C5.16813 22.0343 4.73683 21.7445 4.35594 21.4657C4.22711 21.3704 4.10388 21.275 3.98625 21.1815C3.8873 21.1026 3.78834 21.0237 3.69685 20.9467C3.61844 20.8825 3.54375 20.8183 3.47093 20.756C3.48214 20.833 3.49521 20.91 3.50828 20.9907C3.53068 21.1191 3.55309 21.2493 3.57923 21.3832C3.66698 21.7849 3.77154 22.2122 3.92277 22.6487C4.21031 23.5034 4.64534 24.4039 5.23908 25.2641C2.01086 28.3031 0 32.5838 0 37.3248C0 43.401 3.30103 48.7198 8.23764 51.6469C7.56175 51.1719 6.92133 50.6419 6.32573 50.055C3.46907 47.2489 1.89697 43.5184 1.89697 39.5513C1.89697 35.5843 3.46907 31.8538 6.32573 29.0477C8.94713 26.4727 12.4218 24.9376 16.1112 24.7249C16.4249 24.7065 16.7311 24.6973 17.0205 24.6973C17.4891 24.6973 17.9652 24.7194 18.4376 24.7615L18.7158 24.7872V30.0198L18.9025 30.0509C20.3084 30.2912 21.5818 30.8157 22.5844 31.5659L22.7058 31.6557V35.2982L22.1793 34.7681C21.3689 33.9538 20.2375 33.3431 18.994 33.0496L18.7158 32.9836V38.2051L18.895 38.2418C22 38.8837 23.574 40.6261 23.574 43.4175C23.574 46.2493 21.8656 48.2741 18.8876 48.9747L18.7158 49.015V51.5662L18.9753 51.5259C21.6154 51.1187 24.0146 49.8881 25.8985 47.9751C28.0251 45.8146 29.2668 42.9315 29.3582 39.9273C29.4609 36.549 28.1708 33.3559 25.7491 30.9771C24.2256 29.4806 22.3342 28.4003 20.2804 27.8519L20.0545 27.7914V24.9908L20.4298 25.0752C23.18 25.6951 25.6987 27.0688 27.7152 29.0477C30.5719 31.8538 32.144 35.5843 32.144 39.5513C32.144 43.5184 30.5719 47.2489 27.7152 50.055C27.1233 50.6363 26.4941 51.1591 25.8332 51.6286C30.753 48.6978 34.0391 43.3882 34.0391 37.3248C34.0353 32.9524 32.3232 28.9707 29.5244 25.9922Z" fill="url(#paint9_linear_156:7118)"/>
<path d="M23.2746 35.3496L23.8011 35.8796V32.2372L23.6797 32.1473C23.2241 31.8062 22.7088 31.5146 22.1543 31.2725C22.3018 31.366 22.4437 31.4632 22.5819 31.5659L22.7032 31.6558V34.8525C22.9049 35.0084 23.099 35.1735 23.2746 35.3496Z" fill="url(#paint10_linear_156:7118)"/>
<path d="M21.1484 28.3724L21.3743 28.4329C22.0707 28.6181 22.7466 28.8676 23.3963 29.1702C22.6831 28.7465 21.9307 28.3944 21.1465 28.1211V28.3724H21.1484Z" fill="url(#paint11_linear_156:7118)"/>
<path d="M18.8977 30.0514C19.2095 30.1045 19.5139 30.1742 19.8107 30.2549V25.369L19.5325 25.3433C19.26 25.3195 18.9855 25.303 18.7129 25.292V30.0202L18.8977 30.0514Z" fill="url(#paint12_linear_156:7118)"/>
<path d="M18.9891 33.0494L18.7109 32.9834V38.2049L18.8902 38.2416C19.2151 38.3095 19.5194 38.3902 19.8107 38.4819V33.5648L20.0889 33.6308C20.4828 33.7244 20.8637 33.8527 21.2297 34.0068C20.5687 33.5721 19.8051 33.242 18.9891 33.0494Z" fill="url(#paint13_linear_156:7118)"/>
<path d="M17.1952 7.8627C17.5387 8.80174 17.9831 9.74994 18.4536 10.7275C18.9204 11.705 19.4114 12.7174 19.7942 13.794C19.8017 13.8179 19.811 13.8399 19.8185 13.8637C19.9902 14.3534 20.0351 14.8816 19.9342 15.3897C19.9342 15.3933 19.9324 15.3952 19.9324 15.3988C19.7942 16.1141 19.4955 16.8477 18.9671 17.4493C18.7038 17.7464 18.3883 18.0142 18.0205 18.2013C17.6545 18.392 17.2419 18.4984 16.8162 18.5167C16.3942 18.5369 15.9723 18.4672 15.582 18.3351C15.5876 18.3388 15.5932 18.3443 15.5988 18.348C15.92 18.5864 16.2822 18.7808 16.6762 18.9147C17.0682 19.0486 17.4921 19.1183 17.9159 19.0981C18.3416 19.0798 18.7542 18.9734 19.1202 18.7826C19.488 18.5956 19.8035 18.3278 20.0668 18.0307C20.5952 17.4291 20.8939 16.6955 21.0321 15.9802C21.0321 15.9765 21.034 15.9747 21.034 15.971C21.1348 15.463 21.09 14.9348 20.9182 14.4451C20.9107 14.4213 20.9014 14.3993 20.8939 14.3754C20.5093 13.2988 20.0201 12.2864 19.5533 11.3089C19.0828 10.3332 18.6366 9.38313 18.2949 8.4441C17.9476 7.50873 17.7105 6.5807 17.6209 5.69852C17.5257 4.81634 17.5892 3.97634 17.7889 3.24639C17.9159 2.75487 18.1007 2.31469 18.3099 1.92771C18.3024 1.88919 18.2931 1.84884 18.2875 1.81033C18.2072 1.37933 18.1941 0.970333 18.1941 0.596186C18.2072 0.409113 18.2053 0.229376 18.2314 0.0588087C18.2333 0.0533066 18.2333 0.0496385 18.2333 0.0441363C18.2352 0.0294639 18.237 0.0147915 18.2389 0.00195312C18.224 0.0147915 18.209 0.0276299 18.196 0.0423023V0.0441363C17.9719 0.255052 17.746 0.509986 17.535 0.818106C17.1952 1.3133 16.8797 1.93321 16.6911 2.66683C16.4913 3.39678 16.4278 4.23678 16.523 5.11896C16.6127 5.9993 16.8479 6.9255 17.1952 7.8627Z" fill="url(#paint14_linear_156:7118)"/>
<path d="M28.2007 17.8949C28.1166 18.5588 27.9673 19.2173 27.7992 19.8738C27.6443 20.4754 27.48 21.0678 27.3418 21.6565C27.5042 21.2475 27.6853 20.8587 27.8814 20.4974C28.111 20.0738 28.3594 19.6849 28.6152 19.331C28.8075 17.9518 29.1155 16.9999 29.1155 16.998C28.8317 17.2383 28.5423 17.5079 28.2585 17.8307C28.2399 17.8509 28.2193 17.8729 28.2007 17.8949Z" fill="url(#paint15_linear_156:7118)"/>
<path opacity="0.25" d="M32.8635 43.4301C33.11 42.3608 33.2407 41.2567 33.2407 40.1324C33.2407 36.1654 31.6686 32.4349 28.8119 29.6288C27.6114 28.4495 26.2316 27.4866 24.7305 26.7695C25.8097 27.3986 26.8123 28.1634 27.7141 29.0474C30.5707 31.8535 32.1428 35.584 32.1428 39.551C32.1428 43.5181 30.5707 47.2486 27.7141 50.0547C27.1222 50.6361 26.493 51.1588 25.8321 51.6283C29.0005 49.7392 31.4912 46.8598 32.8635 43.4301Z" fill="url(#paint16_linear_156:7118)"/>
<path d="M19.8107 49.5968L19.9825 49.5565C22.9605 48.8559 24.6689 46.8311 24.6689 43.9993C24.6689 41.7122 23.6103 40.1313 21.5229 39.2803C22.8803 40.1936 23.5711 41.5747 23.5711 43.4179C23.5711 46.2497 21.8627 48.2745 18.8847 48.9751L18.7129 49.0154V51.5666L18.9724 51.5262C19.2543 51.4822 19.5344 51.4272 19.8107 51.3648V49.5968Z" fill="url(#paint17_linear_156:7118)"/>
<path d="M9.75342 14.0044C9.72541 14.0136 9.6974 14.0246 9.66753 14.0356C9.34452 14.6775 9.07006 15.4148 8.87401 16.2603C8.8292 16.4804 8.70224 17.2746 8.64062 17.7386C8.69104 17.8009 8.74705 17.8596 8.80306 17.9202C8.86841 17.9825 8.93189 18.0485 9.00471 18.1054C9.14287 18.2264 9.29971 18.3365 9.46401 18.441C9.5443 18.4905 9.62645 18.5382 9.71047 18.5841C9.73661 18.2723 9.91959 17.115 9.97373 16.8399C10.237 15.7046 10.644 14.7637 11.1145 13.9879C11.3535 13.612 11.6074 13.2708 11.8688 12.9645C12.1452 12.6509 12.4159 12.3666 12.6922 12.1245C12.8509 11.9815 13.0078 11.8513 13.1609 11.7302C13.3569 11.0846 13.5847 10.5436 13.7845 10.1071C13.7863 10.0998 13.7919 10.0943 13.7938 10.0869C13.7826 10.0924 13.7714 10.0961 13.7602 10.1034C13.7546 10.1053 13.7509 10.1089 13.7453 10.1108C13.5604 10.197 13.3513 10.2997 13.1217 10.4354C12.6717 10.6958 12.1396 11.048 11.5944 11.5432C11.3162 11.7852 11.0454 12.0714 10.771 12.3831C10.5096 12.6894 10.2557 13.0306 10.0167 13.4065C9.90652 13.5881 9.80009 13.7789 9.69927 13.9788C9.71421 13.9898 9.73474 13.9971 9.75342 14.0044Z" fill="url(#paint18_linear_156:7118)"/>
<path d="M4.06141 17.5938C4.07448 17.6965 4.09315 17.7992 4.10809 17.9037C4.13049 18.0064 4.1529 18.1091 4.17904 18.2137C4.20891 18.3145 4.23505 18.4172 4.27053 18.52C4.40683 18.9253 4.5954 19.3233 4.82879 19.6992C5.06218 20.0771 5.34224 20.4347 5.65591 20.7667C5.96959 21.0986 6.31687 21.4086 6.69402 21.6892C7.29896 22.1385 7.93564 22.4962 8.55552 22.8245C8.43789 22.8905 8.32026 22.9547 8.2045 23.0244C7.89456 23.006 7.59023 22.9602 7.29896 22.8942C6.89007 22.8006 6.50544 22.6667 6.14509 22.5127C6.33927 22.6337 6.54092 22.7529 6.7575 22.8648C7.24668 23.1216 7.79934 23.3362 8.39868 23.4737C8.68995 23.5379 8.99428 23.5838 9.30422 23.6039C9.41998 23.5342 9.53761 23.4701 9.65524 23.404C9.03536 23.0739 8.39868 22.7163 7.79374 22.2688C7.41659 21.9881 7.07117 21.6782 6.75563 21.3462C6.44196 21.0143 6.1619 20.6566 5.92851 20.2788C5.69512 19.9028 5.50655 19.5048 5.37025 19.0995C5.33477 18.9986 5.30863 18.8941 5.27876 18.7932C5.25262 18.6905 5.23021 18.586 5.20781 18.4833C5.19101 18.3806 5.1742 18.276 5.16113 18.1733C5.1518 18.0706 5.14059 17.9679 5.13499 17.8652C5.09392 17.0472 5.26942 16.2677 5.60737 15.6203C5.94158 14.9711 6.4513 14.474 7.00209 14.1769C7.27655 14.0284 7.56035 13.9367 7.83108 13.8688C7.83855 13.867 7.84602 13.8651 7.85162 13.8651C7.98232 13.7588 8.11488 13.6707 8.24184 13.601C8.29039 13.5735 8.33707 13.5515 8.38374 13.5295C8.43042 13.5075 8.47523 13.4891 8.52004 13.4708C8.56672 13.4525 8.61153 13.436 8.65634 13.4195C8.6246 13.4066 8.59286 13.3956 8.56112 13.3828C8.27358 13.2782 7.9207 13.1994 7.51181 13.2012C7.39045 13.2049 7.26162 13.203 7.13279 13.2214C7.06744 13.2305 7.00022 13.2324 6.93488 13.2471C6.86953 13.2599 6.80231 13.2727 6.73323 13.2874C6.4625 13.3534 6.1787 13.447 5.90424 13.5955C5.35344 13.8908 4.84373 14.3897 4.50952 15.0389C4.17157 15.6845 3.99606 16.4658 4.03714 17.2838C4.04087 17.3883 4.05208 17.491 4.06141 17.5938Z" fill="url(#paint19_linear_156:7118)"/>
<path d="M4.83205 48.3536C2.49631 45.4925 1.09785 41.8592 1.09785 37.9068C1.09785 33.1658 3.10872 28.8851 6.33693 25.8424C5.74319 24.9823 5.30816 24.0817 5.02062 23.2271C4.86939 22.7906 4.76483 22.3614 4.67708 21.9616C4.65654 21.857 4.63974 21.7543 4.62107 21.6516C4.52958 21.5893 4.44182 21.5251 4.35594 21.4627C4.22711 21.3673 4.10388 21.272 3.98625 21.1784C3.8873 21.0996 3.78834 21.0207 3.69685 20.9437C3.61843 20.8795 3.54375 20.8153 3.47093 20.7529C3.48214 20.83 3.49521 20.907 3.50828 20.9877C3.53068 21.1161 3.55309 21.2463 3.57923 21.3802C3.66698 21.7818 3.77154 22.2092 3.92277 22.6457C4.2103 23.5003 4.64534 24.4009 5.23908 25.261C2.01086 28.3037 0 32.5844 0 37.3254C0 43.4016 3.30103 48.7204 8.23763 51.6475C7.56174 51.1725 6.92133 50.6425 6.32573 50.0556C5.77867 49.52 5.28202 48.9515 4.83205 48.3536Z" fill="url(#paint20_linear_156:7118)"/>
<defs>
<linearGradient id="paint0_linear_156:7118" x1="0.0735463" y1="50.5773" x2="43.0539" y2="6.82259" gradientUnits="userSpaceOnUse">
<stop stop-color="#EB5757"/>
<stop offset="1" stop-color="#F2C94C"/>
</linearGradient>
<linearGradient id="paint1_linear_156:7118" x1="5.69432" y1="48.7363" x2="46.3473" y2="7.35089" gradientUnits="userSpaceOnUse">
<stop stop-color="#EB5757"/>
<stop offset="1" stop-color="#F2C94C"/>
</linearGradient>
<linearGradient id="paint2_linear_156:7118" x1="-6.27941" y1="68.3561" x2="43.3516" y2="17.8308" gradientUnits="userSpaceOnUse">
<stop stop-color="#EB5757"/>
<stop offset="1" stop-color="#F2C94C"/>
</linearGradient>
<linearGradient id="paint3_linear_156:7118" x1="3.69252" y1="55.468" x2="12.0962" y2="46.9129" gradientUnits="userSpaceOnUse">
<stop stop-color="#EB5757"/>
<stop offset="1" stop-color="#F2C94C"/>
</linearGradient>
<linearGradient id="paint4_linear_156:7118" x1="-24.4153" y1="70.6206" x2="62.577" y2="-17.9391" gradientUnits="userSpaceOnUse">
<stop stop-color="#EB5757"/>
<stop offset="1" stop-color="#F2C94C"/>
</linearGradient>
<linearGradient id="paint5_linear_156:7118" x1="-13.6141" y1="70.0304" x2="50.8777" y2="4.37716" gradientUnits="userSpaceOnUse">
<stop stop-color="#EB5757"/>
<stop offset="1" stop-color="#F2C94C"/>
</linearGradient>
<linearGradient id="paint6_linear_156:7118" x1="-22.0768" y1="76.1914" x2="54.1802" y2="-1.43966" gradientUnits="userSpaceOnUse">
<stop stop-color="#EB5757"/>
<stop offset="1" stop-color="#F2C94C"/>
</linearGradient>
<linearGradient id="paint7_linear_156:7118" x1="12.5185" y1="39.9559" x2="31.7629" y2="20.3647" gradientUnits="userSpaceOnUse">
<stop stop-color="#EB5757"/>
<stop offset="1" stop-color="#F2C94C"/>
</linearGradient>
<linearGradient id="paint8_linear_156:7118" x1="-81.6848" y1="146.584" x2="84.7377" y2="-22.8372" gradientUnits="userSpaceOnUse">
<stop stop-color="#EB5757"/>
<stop offset="1" stop-color="#F2C94C"/>
</linearGradient>
<linearGradient id="paint9_linear_156:7118" x1="4.98274" y1="42.9017" x2="34.4956" y2="12.8571" gradientUnits="userSpaceOnUse">
<stop stop-color="#EB5757"/>
<stop offset="1" stop-color="#F2C94C"/>
</linearGradient>
<linearGradient id="paint10_linear_156:7118" x1="9.06451" y1="47.2415" x2="29.9511" y2="25.9786" gradientUnits="userSpaceOnUse">
<stop stop-color="#F2C94C"/>
<stop offset="1" stop-color="#EB5757"/>
</linearGradient>
<linearGradient id="paint11_linear_156:7118" x1="14.1072" y1="36.6664" x2="27.7163" y2="22.8122" gradientUnits="userSpaceOnUse">
<stop stop-color="#EB5757"/>
<stop offset="1" stop-color="#F2C94C"/>
</linearGradient>
<linearGradient id="paint12_linear_156:7118" x1="1.12639" y1="45.5877" x2="35.3081" y2="10.7901" gradientUnits="userSpaceOnUse">
<stop stop-color="#F2C94C"/>
<stop offset="1" stop-color="#EB5757"/>
</linearGradient>
<linearGradient id="paint13_linear_156:7118" x1="-4.00197" y1="58.5847" x2="32.7062" y2="21.2152" gradientUnits="userSpaceOnUse">
<stop stop-color="#F2C94C"/>
<stop offset="1" stop-color="#EB5757"/>
</linearGradient>
<linearGradient id="paint14_linear_156:7118" x1="7.14658" y1="20.8129" x2="46.0053" y2="-18.746" gradientUnits="userSpaceOnUse">
<stop stop-color="#EB5757"/>
<stop offset="1" stop-color="#F2C94C"/>
</linearGradient>
<linearGradient id="paint15_linear_156:7118" x1="-24.2177" y1="70.8265" x2="67.552" y2="-22.5965" gradientUnits="userSpaceOnUse">
<stop stop-color="#EB5757"/>
<stop offset="1" stop-color="#F2C94C"/>
</linearGradient>
<linearGradient id="paint16_linear_156:7118" x1="-1.20213" y1="65.5508" x2="32.4346" y2="31.308" gradientUnits="userSpaceOnUse">
<stop stop-color="#F2C94C"/>
<stop offset="1" stop-color="#EB5757"/>
</linearGradient>
<linearGradient id="paint17_linear_156:7118" x1="-23.5639" y1="88.7708" x2="31.7373" y2="32.4731" gradientUnits="userSpaceOnUse">
<stop stop-color="#F2C94C"/>
<stop offset="1" stop-color="#EB5757"/>
</linearGradient>
<linearGradient id="paint18_linear_156:7118" x1="-9.62705" y1="34.9765" x2="90.2315" y2="-66.6813" gradientUnits="userSpaceOnUse">
<stop stop-color="#EB5757"/>
<stop offset="1" stop-color="#F2C94C"/>
</linearGradient>
<linearGradient id="paint19_linear_156:7118" x1="1.79569" y1="24.2903" x2="30.9245" y2="-5.36333" gradientUnits="userSpaceOnUse">
<stop stop-color="#EB5757"/>
<stop offset="1" stop-color="#F2C94C"/>
</linearGradient>
<linearGradient id="paint20_linear_156:7118" x1="-5.78606" y1="47.6346" x2="22.091" y2="19.2552" gradientUnits="userSpaceOnUse">
<stop stop-color="#EB5757"/>
<stop offset="1" stop-color="#F2C94C"/>
</linearGradient>
</defs>
</svg>
